<svg xmlns="http://www.w3.org/2000/svg" width="208" height="58" viewBox="0 0 208 58">
    <g fill="none" fill-rule="evenodd">
        <path fill="#869AB8" fill-rule="nonzero" d="M0 0h58v58H0V0zm43.15 42.712L31.227 15.476h-4.432L14.858 42.712h4.881l9.18-21.545 9.187 21.545h5.045zM83.438 15H88v27h-3.893L69.562 22.804V42H65V15h4.292l14.146 18.677V15M97 19.407h8.595V42h4.813V19.407H119V15H97zM132.768 15H128v27h19v-4.312h-14.232zM200.682 31.789c3.798-1.078 6.468-3.743 6.468-8.17v-.08c0-2.36-.785-4.363-2.244-5.824-1.747-1.746-4.415-2.715-7.823-2.715H185v27h4.768v-9.404h5.963l6.66 9.404H208l-7.318-10.211zM189.76 28.4v-9.06h6.936c3.523 0 5.61 1.569 5.61 4.468v.067c0 2.735-2.17 4.52-5.582 4.52l-6.964.005zM155 19.257V42h20v-4.234h-15.777v-7.254h12.092v-4.231h-12.092v-7.024H175V15h-20z"/>
        <path d="M28.915 20.642L38.008 42H43L31.199 15h-4.387L15 42h4.831z"/>
    </g>
</svg>
