<svg xmlns="http://www.w3.org/2000/svg" width="252" height="58" viewBox="0 0 252 58">
    <g fill="none" fill-rule="nonzero">
        <path fill="#CA1E7A" d="M66.432 23.488h5.136v18.55h9.504v4.745h-14.64zM81.984 35.136c0-1.87.336-3.548.96-5.081a10.945 10.945 0 0 1 2.64-3.883c1.104-1.055 2.448-1.87 3.984-2.445 1.536-.575 3.216-.863 5.04-.863 1.824 0 3.504.288 5.04.863s2.88 1.39 3.984 2.445a11.146 11.146 0 0 1 2.64 3.883c.624 1.533.96 3.211.96 5.08 0 1.87-.336 3.548-.96 5.082a10.945 10.945 0 0 1-2.64 3.882c-1.104 1.055-2.448 1.87-3.984 2.445-1.536.575-3.216.863-5.04.863-1.824 0-3.504-.288-5.04-.863s-2.88-1.39-3.984-2.445a11.146 11.146 0 0 1-2.64-3.882c-.624-1.534-.96-3.212-.96-5.081zm5.328 0c0 1.102.192 2.109.528 3.02a6.33 6.33 0 0 0 1.488 2.348c.624.671 1.392 1.198 2.304 1.582.912.383 1.872.575 2.976.575 1.104 0 2.112-.192 2.976-.575.912-.384 1.632-.91 2.304-1.582.624-.67 1.104-1.438 1.488-2.349.336-.91.528-1.917.528-3.02a8.595 8.595 0 0 0-.528-2.971c-.336-.911-.816-1.726-1.488-2.397-.624-.671-1.392-1.198-2.304-1.582-.912-.383-1.872-.575-2.976-.575-1.104 0-2.112.192-2.976.575-.912.384-1.632.91-2.304 1.582-.624.671-1.104 1.486-1.488 2.397a8.595 8.595 0 0 0-.528 2.972zM109.968 23.488h6.96l9.936 16.201h.048V23.488h5.136v23.295h-6.72L115.2 30.198h-.048v16.585h-5.136V23.488zM157.296 45.154c-1.536.767-3.072 1.342-4.752 1.725a24.967 24.967 0 0 1-5.04.528c-1.824 0-3.504-.288-5.04-.863s-2.88-1.39-3.984-2.445a11.146 11.146 0 0 1-2.64-3.882c-.624-1.534-.96-3.212-.96-5.081 0-1.87.336-3.548.96-5.081a10.945 10.945 0 0 1 2.64-3.883c1.104-1.055 2.448-1.87 3.984-2.445 1.536-.575 3.216-.863 5.04-.863 1.872 0 3.6.24 5.136.672 1.584.43 2.928 1.246 4.128 2.3l-3.6 3.93c-.72-.718-1.488-1.293-2.352-1.629-.864-.383-1.968-.575-3.312-.575-1.104 0-2.112.192-2.976.575-.912.384-1.632.91-2.304 1.582-.624.671-1.104 1.486-1.488 2.397a8.595 8.595 0 0 0-.528 2.972c0 1.102.192 2.109.528 3.02a6.33 6.33 0 0 0 1.488 2.348c.624.671 1.392 1.199 2.304 1.582.912.383 1.872.575 2.976.575 1.104 0 2.064-.144 2.88-.383a11.31 11.31 0 0 0 1.92-.767v-3.787h-4.176v-4.745h9.12v12.223h.048z"/>
        <path fill="#1D1E40" d="M165.648 22.529H168v11.025h14.016V22.529h2.352v25.07h-2.352V35.71H168v11.887h-2.352zM199.344 25.07l-9.6 22.528h-2.448l10.944-25.07h2.4l10.56 25.07h-2.64zM214.8 42.949c.624 1.054 1.392 1.87 2.4 2.349.96.527 2.112.766 3.36.766.768 0 1.488-.095 2.208-.335.672-.24 1.296-.575 1.776-1.007a4.605 4.605 0 0 0 1.2-1.534 4.74 4.74 0 0 0 .432-2.013c0-.863-.192-1.582-.528-2.157-.384-.575-.864-1.054-1.488-1.39-.624-.383-1.296-.671-2.064-.959-.768-.24-1.536-.527-2.352-.767-.816-.24-1.584-.575-2.352-.862a8.324 8.324 0 0 1-2.064-1.295c-.624-.527-1.104-1.198-1.488-2.013-.384-.815-.528-1.773-.528-2.972 0-1.102.24-2.109.672-2.972.432-.862 1.008-1.581 1.776-2.157.72-.575 1.584-1.006 2.592-1.294.96-.287 1.968-.431 3.024-.431 1.392 0 2.64.24 3.792.719 1.152.48 2.16 1.294 3.024 2.444l-2.016 1.438a6.329 6.329 0 0 0-2.064-1.869c-.816-.431-1.728-.623-2.832-.623a7.84 7.84 0 0 0-2.16.287c-.672.192-1.296.48-1.776.863a3.668 3.668 0 0 0-1.2 1.486 4.716 4.716 0 0 0-.48 2.11c0 1.246.336 2.204.96 2.875.624.671 1.44 1.199 2.4 1.582.96.384 2.016.72 3.12 1.007 1.104.287 2.16.67 3.12 1.198a6.64 6.64 0 0 1 2.4 2.061c.624.863.96 2.11.96 3.643 0 1.15-.192 2.157-.624 3.02s-1.008 1.63-1.728 2.205c-.72.623-1.536 1.055-2.496 1.342-.96.288-1.92.48-2.928.48-1.632 0-3.168-.288-4.56-.863-1.392-.575-2.592-1.534-3.6-2.924l2.112-1.438zM233.088 22.529h2.352v11.025h14.016V22.529h2.352v25.07h-2.352V35.71H235.44v11.887h-2.352v-25.07z"/>
        <g>
            <path fill="#CA1E7B" d="M51.744 29.863l4.368-1.103v7.957l-4.368 1.103z"/>
            <path fill="#811F58" d="M44.88 25.884v7.957l6.864 3.979v-7.957z"/>
            <path fill="#CD4190" d="M51.744 29.863l4.368-1.103-6.912-3.93-4.32 1.054z"/>
            <path fill="#811F58" d="M13.584 26.22v9.347l-6.768-3.979v-9.25z"/>
            <path fill="#CD4190" d="M6.816 22.337l6.768 3.883 6.48-1.486-6.816-4.027z"/>
            <path fill="#CA1E7B" d="M20.064 33.937v-9.203l-6.48 1.486v9.347z"/>
            <path fill="#811F58" d="M6.864 14.812v7.573L.096 18.407v-7.574z"/>
            <path fill="#CD4190" d="M.096 10.833l6.768 3.979 6.48-1.63-6.816-4.027z"/>
            <path fill="#CA1E7B" d="M13.344 20.755v-7.573l-6.48 1.63v7.573z"/>
            <path fill="#811F58" d="M10.752 29.096l6.864 3.978v11.888l-6.864-3.93z"/>
            <path fill="#1D1E40" d="M17.616 33.074l-1.104-.623V44.34l1.104.623z"/>
            <path fill="#CD4190" d="M42.384 21.235l6.864 3.978-31.632 7.861-6.864-3.978z"/>
            <path fill="#1D1E40" d="M40.512 27.37l-1.104-.67-22.896 5.751 1.104.623"/>
            <path fill="#CA1E7B" d="M49.248 37.149V25.213l-31.632 7.861v11.888z"/>
            <path fill="#CA1E7B" d="M26.256 9.97l19.536-4.889v40.408l-19.536 4.89z"/>
            <path fill="#811F58" d="M46.128 50.379v3.978l-8.256-4.841v-3.979zM33.12 53.926v3.834l-3.456-1.965v-3.883z"/>
            <path fill="#CD4190" d="M29.664 51.912l3.456 2.014 6.528-1.87-3.552-1.773z"/>
            <path fill="#CA1E7B" d="M39.648 55.987v-3.93l-6.528 1.869v3.834z"/>
            <path fill="#1D1E40" d="M49.2 46.736L29.664 51.96V27.85L49.2 22.912zM26.256 16.49l19.536-4.938v9.827l-19.536 4.889z"/>
            <path fill="#811F58" d="M29.664 27.85v27.945l-3.408-2.013V25.884z"/>
            <g fill="#FFF">
                <path d="M39.12 30.102v16.634l-2.256.575V30.678zM44.784 28.664v16.634l-2.304.575V29.24z"/>
                <g>
                    <path d="M35.184 36.813l11.088-2.78v-2.445l-11.088 2.829zM35.184 44.483l11.088-2.828v-2.397l-11.088 2.78z"/>
                </g>
            </g>
            <g>
                <path fill="#811F58" d="M26.208 25.884v-3.978l6.912 3.978v3.979z"/>
                <path fill="#1D1E40" d="M45.792 16.969l6.864 3.978-19.536 4.937-6.912-3.978z"/>
                <path fill="#811F58" d="M26.208 21.906v-4.794s.336 4.986 4.656 7.478l-4.656-2.684z"/>
                <path fill="#1D1E40" d="M45.792 16.969V10.88s.528 6.423 6.864 10.066l-6.864-3.978z"/>
                <path fill="#CA1E7B" d="M33.12 17.927v3.979l18.048-4.554c.864-.24 1.488-1.007 1.488-1.917V12.99L33.12 17.927zM33.12 25.884v3.979l18.048-4.554c.864-.24 1.488-1.007 1.488-1.917v-2.445L33.12 25.884z"/>
                <path fill="#CD4190" d="M45.792 9.012l6.864 3.978-19.536 4.937-6.912-3.978z"/>
                <path fill="#811F58" d="M26.208 17.927V13.95l6.912 3.978v3.979z"/>
            </g>
            <path fill="#CD4190" d="M42.816 48.461l3.312 1.918 6.528-1.63-3.456-2.013z"/>
            <path fill="#CA1E7B" d="M52.656 52.68V48.7l-6.528 1.679v3.978z"/>
            <g fill="#CD4190">
                <path d="M35.04.623L19.104 4.65a1.82 1.82 0 0 0-1.008.623c1.776 1.054 8.112 4.697 8.112 4.697l19.536-4.937-6.72-3.883C37.872.48 36.384.288 35.04.623z"/>
            </g>
            <path fill="#811F58" d="M18.096 5.32c-.288.336-.48.768-.48 1.247v42.278l8.592 4.937V9.97l-8.112-4.65z"/>
            <path fill="#FFF" d="M23.28 13.326c-.096.91-.816 1.39-1.632 1.15-.768-.24-1.296-1.15-1.2-2.061.096-.91.816-1.39 1.632-1.15.768.24 1.344 1.15 1.2 2.06z"/>
            <path fill="#CA1E7B" d="M29.664 35.519l4.368-1.102v7.957l-4.368 1.054z"/>
            <g fill="#811F58">
                <path d="M22.8 31.54v7.958l6.864 3.93V35.52z"/>
            </g>
            <path fill="#CD4190" d="M29.664 35.519l4.368-1.102-6.912-3.979-4.32 1.102z"/>
            <ellipse cx="23.136" cy="13.421" fill="#811F58" rx="1.248" ry="1.246"/>
        </g>
    </g>
</svg>
